<svg width="32" height="32" viewBox="0 0 32 32" fill="none" xmlns="http://www.w3.org/2000/svg">
<path fill-rule="evenodd" clip-rule="evenodd" d="M15.9713 9.79783e-05C12.1791 0.000622069 8.51075 1.38664 5.62248 3.91021C2.7342 6.43378 0.814431 9.93028 0.206573 13.7743C-0.401285 17.6182 0.342426 21.5589 2.30467 24.8913C4.26691 28.2238 7.31968 30.7306 10.9169 31.9634C11.7156 32.1157 12.0578 31.6119 12.0578 31.1784V28.3898C7.6195 29.374 6.68391 26.1871 6.68391 26.1871C6.37181 25.1827 5.71492 24.3291 4.83556 23.7851C3.38654 22.7775 4.94965 22.7892 4.94965 22.7892C5.45579 22.8626 5.93889 23.0539 6.36206 23.3483C6.78523 23.6428 7.13728 24.0326 7.39131 24.4881C7.83325 25.3021 8.5719 25.9026 9.44485 26.1575C10.3178 26.4123 11.2536 26.3008 12.0464 25.8473C12.1108 25.0159 12.4677 24.2371 13.0505 23.6562C9.5135 23.2344 5.78256 21.8284 5.78256 15.5482C5.75669 13.9171 6.34531 12.3388 7.42554 11.1427C6.93659 9.72993 6.99376 8.17837 7.58527 6.80754C7.58527 6.80754 8.9202 6.3623 11.978 8.48303C14.5925 7.75068 17.3502 7.75068 19.9647 8.48303C23.0111 6.3623 24.346 6.80754 24.346 6.80754C24.9375 8.17837 24.9947 9.72993 24.5057 11.1427C25.5859 12.3388 26.1746 13.9171 26.1487 15.5482C26.1487 21.8519 22.4178 23.2344 18.858 23.6445C19.2393 24.0414 19.5334 24.5177 19.7203 25.0412C19.9073 25.5646 19.9828 26.1232 19.9419 26.6792V31.1784C19.9419 31.7174 20.2271 32.1275 21.0828 31.9634C24.6848 30.7291 27.7407 28.2174 29.7026 24.8788C31.6646 21.5403 32.4042 17.5931 31.7888 13.7453C31.1735 9.89738 29.2434 6.40047 26.3448 3.88159C23.4461 1.36271 19.7685 -0.0133733 15.9713 9.79783e-05V9.79783e-05Z" fill="black"/>
</svg>
