<svg width="32" height="32" viewBox="0 0 32 32" fill="none" xmlns="http://www.w3.org/2000/svg">
<path fill-rule="evenodd" clip-rule="evenodd" d="M16 32C24.8366 32 32 24.8366 32 16C32 7.16344 24.8366 0 16 0C7.16344 0 0 7.16344 0 16C0 24.8366 7.16344 32 16 32ZM12.6505 12.6501C13.5389 11.7618 14.7437 11.2627 16 11.2627C17.2563 11.2627 18.4611 11.7618 19.3494 12.6501C20.2378 13.5384 20.7368 14.7432 20.7368 15.9995C20.7368 17.2558 20.2378 18.4607 19.3494 19.349C18.4611 20.2373 17.2563 20.7364 16 20.7364C14.7437 20.7364 13.5389 20.2373 12.6505 19.349C11.7622 18.4607 11.2632 17.2558 11.2632 15.9995C11.2632 14.7432 11.7622 13.5384 12.6505 12.6501ZM13.824 18.1745C14.4011 18.7516 15.1838 19.0758 16 19.0758C16.8161 19.0758 17.5989 18.7516 18.176 18.1745C18.7531 17.5974 19.0773 16.8147 19.0773 15.9985C19.0773 15.1824 18.7531 14.3996 18.176 13.8225C17.5989 13.2454 16.8161 12.9212 16 12.9212C15.1838 12.9212 14.4011 13.2454 13.824 13.8225C13.2469 14.3996 12.9227 15.1824 12.9227 15.9985C12.9227 16.8147 13.2469 17.5974 13.824 18.1745ZM21.2632 12.3161C22.1352 12.3161 22.8421 11.6092 22.8421 10.7372C22.8421 9.86512 22.1352 9.1582 21.2632 9.1582C20.3911 9.1582 19.6842 9.86512 19.6842 10.7372C19.6842 11.6092 20.3911 12.3161 21.2632 12.3161ZM24.3167 7.67671C24.8202 8.17929 25.2131 8.7813 25.4702 9.44422C25.7667 10.2307 25.9249 11.0624 25.9378 11.9026C26 12.9639 26 13.3076 26 16.0166C26 18.7257 25.9856 19.0639 25.9378 20.1306C25.9211 20.9601 25.7645 21.7784 25.4725 22.5547C25.215 23.2175 24.822 23.8195 24.3185 24.3222C23.815 24.8249 23.2121 25.2173 22.5482 25.4744C21.771 25.7651 20.9501 25.9222 20.1204 25.939C19.0598 26 18.7121 26 16 26C13.2879 26 12.9491 25.9856 11.8796 25.939C11.0482 25.9117 10.2275 25.743 9.45291 25.44C8.78883 25.1834 8.18567 24.7913 7.68196 24.2887C7.17825 23.7862 6.78507 23.1843 6.52754 22.5214C6.23545 21.7441 6.07885 20.9257 6.06219 20.0963C6 19.035 6 18.6902 6 15.9823C6 13.2732 6.01444 12.935 6.06219 11.8683C6.07843 11.0397 6.23579 10.22 6.52754 9.44422C6.78435 8.78113 7.17715 8.17896 7.68074 7.67635C8.18432 7.17373 8.78758 6.78177 9.4518 6.52562C10.2279 6.23353 11.0482 6.07602 11.8774 6.05988C12.938 6 13.2857 6 15.9978 6C18.7099 6 19.0486 6.01331 20.1182 6.05988C20.948 6.07689 21.7689 6.23437 22.546 6.52562C23.21 6.78207 23.8131 7.17414 24.3167 7.67671ZM23.7721 21.886C23.9935 21.2864 24.1103 20.6533 24.1175 20.0142V20.0153H24.1297C24.1775 18.9552 24.1775 18.6647 24.1775 15.9634C24.1775 13.261 24.1653 12.965 24.1175 11.9104C24.1072 11.2785 23.9904 10.6529 23.7721 10.0597C23.6052 9.62838 23.3498 9.2367 23.0224 8.90977C22.695 8.58284 22.3027 8.32787 21.8707 8.16123C21.2769 7.94064 20.6495 7.82398 20.016 7.81637C18.942 7.75538 18.6644 7.75538 15.9578 7.75538C13.2512 7.75538 12.9547 7.76868 11.8985 7.81637C11.2655 7.8252 10.6386 7.94183 10.0449 8.16123C9.16859 8.49612 8.47446 9.18474 8.13572 10.0597C7.91432 10.6589 7.79749 11.2917 7.79032 11.9304C7.73145 13.0049 7.73145 13.281 7.73145 15.9834C7.73145 18.6846 7.74256 18.9818 7.79032 20.0353C7.80066 20.6672 7.91742 21.2928 8.13572 21.886C8.30324 22.318 8.55973 22.7102 8.88859 23.037C9.21746 23.3638 9.61138 23.6181 10.0449 23.7833C10.6383 24.0038 11.2654 24.1205 11.8985 24.1282C12.9736 24.1892 13.2501 24.1892 15.9578 24.1892C18.6633 24.1892 18.9609 24.177 20.016 24.1282C20.6494 24.12 21.2768 24.0034 21.8707 23.7833C22.3027 23.617 22.695 23.3623 23.0225 23.0356C23.35 22.7088 23.6053 22.3172 23.7721 21.886Z" fill="black"/>
</svg>