<svg width="200" height="300" viewBox="0 0 200 300" fill="none" xmlns="http://www.w3.org/2000/svg">
    <g clip-path="url(#clip0)">
        <path d="M50.01 299.517C77.6045 299.517 100 277.153 100 249.597V199.678H50.01C22.4155 199.678 0.0200195 222.042 0.0200195 249.597C0.0200195 277.153 22.4155 299.517 50.01 299.517Z" fill="#0ACF83"/>
        <path d="M0.0200195 149.758C0.0200195 122.203 22.4155 99.8389 50.01 99.8389H100V199.678H50.01C22.4155 199.678 0.0200195 177.314 0.0200195 149.758Z" fill="#A259FF"/>
        <path d="M0.0214844 49.9195C0.0214844 22.3639 22.417 0 50.0115 0H100.001V99.839H50.0115C22.417 99.839 0.0214844 77.475 0.0214844 49.9195Z" fill="#F24E1E"/>
        <path d="M100 0H149.99C177.585 0 199.98 22.3639 199.98 49.9195C199.98 77.475 177.585 99.839 149.99 99.839H100V0Z" fill="#FF7262"/>
        <path d="M199.98 149.758C199.98 177.314 177.585 199.678 149.99 199.678C122.396 199.678 100 177.314 100 149.758C100 122.203 122.396 99.8389 149.99 99.8389C177.585 99.8389 199.98 122.203 199.98 149.758Z" fill="#1ABCFE"/>
    </g>
    <defs>
        <clipPath id="clip0">
            <rect width="200" height="299.517" fill="white"/>
        </clipPath>
    </defs>
</svg>
